<?xml version="1.0" standalone="no"?><!DOCTYPE svg PUBLIC "-//W3C//DTD SVG 1.1//EN" "http://www.w3.org/Graphics/SVG/1.1/DTD/svg11.dtd"><svg t="1684397148995" class="icon" viewBox="0 0 1024 1024" version="1.1" xmlns="http://www.w3.org/2000/svg" p-id="916" data-darkreader-inline-fill="" xmlns:xlink="http://www.w3.org/1999/xlink" width="200" height="200"><path d="M847.644444 1018.311111H182.044444c-79.644444 0-147.911111-68.266667-147.911111-147.911111V204.8C34.133333 125.155556 102.4 56.888889 182.044444 56.888889h119.466667c56.888889 0 108.088889 34.133333 130.844445 85.333333l34.133333 68.266667c11.377778 22.755556 34.133333 39.822222 62.577778 39.822222h318.577777c79.644444 0 147.911111 68.266667 147.911112 147.911111v472.177778c0 79.644444-68.266667 147.911111-147.911112 147.911111zM182.044444 136.533333c-34.133333 0-68.266667 28.444444-68.266666 68.266667v665.6c0 34.133333 28.444444 68.266667 68.266666 68.266667h665.6c34.133333 0 68.266667-28.444444 68.266667-68.266667V398.222222c0-34.133333-28.444444-68.266667-68.266667-68.266666H523.377778c-56.888889 0-108.088889-34.133333-130.844445-85.333334l-34.133333-68.266666c-11.377778-22.755556-34.133333-39.822222-56.888889-39.822223H182.044444z" p-id="917" fill="#ffffff" data-darkreader-inline-fill="" style="--darkreader-inline-fill: #181a1b;"></path><path d="M847.644444 1024H182.044444C96.711111 1024 28.444444 955.733333 28.444444 870.4V204.8C28.444444 119.466667 96.711111 51.2 182.044444 51.2h119.466667c56.888889 0 113.777778 34.133333 136.533333 91.022222l34.133334 68.266667c11.377778 22.755556 34.133333 34.133333 56.888889 34.133333h318.577777c79.644444 0 153.6 68.266667 153.6 153.6v472.177778c0 79.644444-73.955556 153.6-153.6 153.6zM182.044444 62.577778C102.4 62.577778 39.822222 125.155556 39.822222 204.8v665.6c0 79.644444 62.577778 142.222222 142.222222 142.222222h665.6c79.644444 0 142.222222-62.577778 142.222223-142.222222V398.222222c0-79.644444-62.577778-142.222222-142.222223-142.222222H523.377778c-28.444444 0-51.2-17.066667-68.266667-39.822222l-28.444444-73.955556c-22.755556-45.511111-73.955556-79.644444-125.155556-79.644444H182.044444z m665.6 876.088889H182.044444c-39.822222 0-73.955556-34.133333-73.955555-73.955556V204.8c0-39.822222 34.133333-73.955556 73.955555-73.955556h119.466667c28.444444 0 51.2 17.066667 68.266667 39.822223l34.133333 68.266666c22.755556 51.2 73.955556 79.644444 130.844445 79.644445H853.333333c39.822222 0 73.955556 34.133333 73.955556 73.955555v472.177778c-11.377778 45.511111-39.822222 73.955556-79.644445 73.955556zM182.044444 142.222222c-34.133333 0-62.577778 28.444444-62.577777 62.577778v665.6c0 34.133333 28.444444 62.577778 62.577777 62.577778h665.6c34.133333 0 62.577778-28.444444 62.577778-62.577778V398.222222c0-34.133333-28.444444-62.577778-62.577778-62.577778H523.377778c-56.888889 0-113.777778-34.133333-136.533334-91.022222l-34.133333-68.266666c-11.377778-22.755556-34.133333-34.133333-56.888889-34.133334h-113.777778z" p-id="918" fill="#ffffff" data-darkreader-inline-fill="" style="--darkreader-inline-fill: #181a1b;"></path><path d="M881.777778 290.133333h-79.644445v-39.822222c0-34.133333-28.444444-68.266667-68.266666-68.266667H386.844444V102.4h347.022223c79.644444 0 147.911111 68.266667 147.911111 147.911111v39.822222z m-409.6 568.888889H256c-22.755556 0-39.822222-17.066667-39.822222-39.822222s17.066667-39.822222 39.822222-39.822222h221.866667c22.755556 0 39.822222 17.066667 39.822222 39.822222-5.688889 17.066667-22.755556 39.822222-45.511111 39.822222z" p-id="919" fill="#ffffff" data-darkreader-inline-fill="" style="--darkreader-inline-fill: #181a1b;"></path><path d="M472.177778 864.711111H256c-22.755556 0-45.511111-22.755556-45.511111-45.511111s22.755556-45.511111 45.511111-45.511111h221.866667c22.755556 0 45.511111 22.755556 45.511111 45.511111-5.688889 22.755556-22.755556 45.511111-51.2 45.511111z m-216.177778-85.333333c-17.066667 0-34.133333 17.066667-34.133333 34.133333s17.066667 34.133333 34.133333 34.133333h221.866667c17.066667 0 34.133333-17.066667 34.133333-34.133333s-17.066667-34.133333-34.133333-34.133333H256z m631.466667-483.555556H796.444444v-45.511111c0-34.133333-28.444444-62.577778-62.577777-62.577778H381.155556V96.711111h352.711111c85.333333 0 153.6 68.266667 153.6 153.6v45.511111zM807.822222 284.444444h68.266667v-34.133333c0-79.644444-62.577778-142.222222-142.222222-142.222222h-341.333334v68.266667h341.333334c39.822222 0 73.955556 34.133333 73.955555 73.955555V284.444444z" p-id="920" fill="#ffffff" data-darkreader-inline-fill="" style="--darkreader-inline-fill: #181a1b;"></path></svg>